<svg width="19" height="19" viewBox="0 0 19 19" fill="none" xmlns="http://www.w3.org/2000/svg">
<path d="M16.1658 3.62583C15.7687 3.22729 15.2967 2.91106 14.7771 2.69529C14.2575 2.47953 13.7004 2.36846 13.1377 2.36846C12.5751 2.36846 12.018 2.47953 11.4983 2.69529C10.9787 2.91106 10.5068 3.22729 10.1096 3.62583L9.50001 4.24333L8.89042 3.62583C8.49326 3.22729 8.02133 2.91106 7.5017 2.69529C6.98206 2.47953 6.42495 2.36846 5.8623 2.36846C5.29965 2.36846 4.74253 2.47953 4.2229 2.69529C3.70327 2.91106 3.23134 3.22729 2.83417 3.62583C1.15584 5.30416 1.05292 8.13833 3.16667 10.2917L9.50001 16.625L15.8333 10.2917C17.9471 8.13833 17.8442 5.30416 16.1658 3.62583Z" stroke="black" stroke-width="2" stroke-linecap="round" stroke-linejoin="round"/>
</svg>
