<svg width="160" height="34" viewBox="0 0 160 34" fill="none" xmlns="http://www.w3.org/2000/svg">
<path d="M16.9 33.45C13.72 33.45 10.84 32.76 8.26 31.38C5.71 29.97 3.7 28.035 2.23 25.575C0.79 23.115 0.0700002 20.34 0.0700002 17.25C0.0700002 14.16 0.805 11.385 2.275 8.925C3.745 6.465 5.755 4.545 8.305 3.165C10.885 1.755 13.765 1.05 16.945 1.05C19.525 1.05 21.88 1.5 24.01 2.4C26.14 3.3 27.94 4.605 29.41 6.315L25.63 9.87C23.35 7.41 20.545 6.18 17.215 6.18C15.055 6.18 13.12 6.66 11.41 7.62C9.7 8.55 8.365 9.855 7.405 11.535C6.445 13.215 5.965 15.12 5.965 17.25C5.965 19.38 6.445 21.285 7.405 22.965C8.365 24.645 9.7 25.965 11.41 26.925C13.12 27.855 15.055 28.32 17.215 28.32C20.545 28.32 23.35 27.075 25.63 24.585L29.41 28.185C27.94 29.895 26.125 31.2 23.965 32.1C21.835 33 19.48 33.45 16.9 33.45ZM58.7922 29.985C57.3822 31.095 55.5672 31.95 53.3472 32.55C51.1272 33.15 48.7272 33.45 46.1472 33.45C43.1172 33.45 40.5372 33.06 38.4072 32.28C36.3072 31.5 34.7172 30.42 33.6372 29.04C32.5572 27.66 32.0172 26.07 32.0172 24.27C32.0172 22.53 32.4972 21.015 33.4572 19.725C34.4172 18.435 35.7072 17.49 37.3272 16.89C36.0972 16.23 35.1222 15.315 34.4022 14.145C33.7122 12.945 33.3672 11.61 33.3672 10.14C33.3672 8.46 33.8622 6.945 34.8522 5.595C35.8722 4.215 37.3872 3.12 39.3972 2.31C41.4072 1.47 43.8822 1.05 46.8222 1.05C48.8022 1.05 50.7372 1.26 52.6272 1.68C54.5172 2.1 56.1672 2.67 57.5772 3.39L55.9122 8.025C53.2722 6.645 50.3172 5.955 47.0472 5.955C44.4672 5.955 42.5172 6.375 41.1972 7.215C39.9072 8.025 39.2622 9.12 39.2622 10.5C39.2622 11.85 39.7422 12.885 40.7022 13.605C41.6622 14.295 43.0722 14.64 44.9322 14.64H53.2572V19.5H44.6172C42.4872 19.5 40.8372 19.875 39.6672 20.625C38.4972 21.345 37.9122 22.425 37.9122 23.865C37.9122 25.305 38.6172 26.445 40.0272 27.285C41.4372 28.125 43.5672 28.545 46.4172 28.545C48.3972 28.545 50.3172 28.275 52.1772 27.735C54.0672 27.195 55.6422 26.445 56.9022 25.485L58.7922 29.985ZM80.4495 16.575C82.3395 17.175 83.8095 18.15 84.8595 19.5C85.9395 20.82 86.4795 22.38 86.4795 24.18C86.4795 26.07 85.8645 27.72 84.6345 29.13C83.4045 30.51 81.7545 31.575 79.6845 32.325C77.6445 33.075 75.4095 33.45 72.9795 33.45C70.8795 33.45 68.7645 33.165 66.6345 32.595C64.5345 31.995 62.5845 31.11 60.7845 29.94L62.6745 25.665C64.0545 26.595 65.5845 27.315 67.2645 27.825C68.9445 28.305 70.6095 28.545 72.2595 28.545C74.6295 28.545 76.5945 28.08 78.1545 27.15C79.7445 26.22 80.5395 24.945 80.5395 23.325C80.5395 21.945 79.9695 20.895 78.8295 20.175C77.6895 19.455 76.1145 19.095 74.1045 19.095H66.7695V14.505H73.6545C75.3945 14.505 76.7595 14.145 77.7495 13.425C78.7395 12.705 79.2345 11.73 79.2345 10.5C79.2345 9.03 78.5595 7.89 77.2095 7.08C75.8895 6.27 74.1945 5.865 72.1245 5.865C70.7145 5.865 69.2595 6.075 67.7595 6.495C66.2595 6.885 64.8495 7.47 63.5295 8.25L61.6845 3.525C63.3045 2.655 65.0145 2.01 66.8145 1.59C68.6445 1.14 70.4595 0.914997 72.2595 0.914997C74.5995 0.914997 76.7445 1.275 78.6945 1.995C80.6745 2.715 82.2495 3.75 83.4195 5.1C84.5895 6.42 85.1745 7.98 85.1745 9.78C85.1745 11.34 84.7545 12.705 83.9145 13.875C83.0745 15.045 81.9195 15.945 80.4495 16.575ZM107.693 33.45C104.483 33.45 101.588 32.76 99.0081 31.38C96.4281 29.97 94.4031 28.035 92.9331 25.575C91.4631 23.085 90.7281 20.31 90.7281 17.25C90.7281 14.19 91.4631 11.43 92.9331 8.97C94.4031 6.48 96.4281 4.545 99.0081 3.165C101.588 1.755 104.483 1.05 107.693 1.05C110.903 1.05 113.798 1.755 116.378 3.165C118.958 4.545 120.983 6.465 122.453 8.925C123.923 11.385 124.658 14.16 124.658 17.25C124.658 20.34 123.923 23.115 122.453 25.575C120.983 28.035 118.958 29.97 116.378 31.38C113.798 32.76 110.903 33.45 107.693 33.45ZM107.693 28.32C109.793 28.32 111.683 27.855 113.363 26.925C115.043 25.965 116.363 24.645 117.323 22.965C118.283 21.255 118.763 19.35 118.763 17.25C118.763 15.15 118.283 13.26 117.323 11.58C116.363 9.87 115.043 8.55 113.363 7.62C111.683 6.66 109.793 6.18 107.693 6.18C105.593 6.18 103.703 6.66 102.023 7.62C100.343 8.55 99.0231 9.87 98.0631 11.58C97.1031 13.26 96.6231 15.15 96.6231 17.25C96.6231 19.35 97.1031 21.255 98.0631 22.965C99.0231 24.645 100.343 25.965 102.023 26.925C103.703 27.855 105.593 28.32 107.693 28.32ZM159.116 1.5V33H153.266V19.5H136.976V33H131.126V1.5H136.976V14.505H153.266V1.5H159.116Z" fill="black"/>
</svg>
