<svg width="181" height="53" viewBox="0 0 181 53" fill="none" xmlns="http://www.w3.org/2000/svg">
<path d="M56.1137 16.9814L56.7038 14H57.2939H59.0643H62.0149C63.1952 14 63.1952 14.5963 64.9656 16.3852C66.1458 17.5777 66.1458 16.9814 67.9162 16.9814C69.6866 16.9814 71.457 16.3852 73.2273 16.3852H78.5385C80.3089 16.3852 79.7187 17.5777 80.899 18.7703C82.0792 19.9629 81.4891 19.3666 82.0792 21.1555C82.6694 22.9443 82.0792 22.9443 81.4891 24.1369C80.899 25.3295 80.899 24.7332 79.7187 25.3295C78.5385 25.9258 72.6372 27.7147 73.2273 27.7147C73.8175 27.7147 75.5878 27.1184 76.7681 27.1184C77.9483 27.1184 79.1286 27.7147 80.3089 28.311C81.4891 28.9072 81.4891 30.0998 82.6694 31.2924C83.8496 32.485 83.2595 33.0813 83.8496 35.4664C84.4397 37.8516 83.2595 37.8516 80.899 39.6405C78.5385 41.4293 78.5385 40.2367 76.178 40.833C73.8175 41.4293 72.0471 40.2367 70.8668 40.2367C69.6866 40.2367 69.0965 39.6405 66.7359 39.0442C64.3754 38.4479 65.5557 38.4479 63.7853 38.4479C62.0149 38.4479 60.8347 37.8516 59.6544 37.8516C58.4742 37.8516 56.1137 39.0442 53.7532 40.2367C51.3927 41.4293 45.4914 40.2367 42.5408 39.6405C39.5901 39.0442 39 36.659 39 32.485C39 28.311 47.8519 27.7147 44.9013 27.7147C41.9506 27.7147 41.3605 25.9258 39.5901 22.3481C37.8197 18.7703 42.5407 17.5777 45.4914 15.7889C47.8519 14.3578 53.5564 15.9876 56.1137 16.9814Z" fill="#7825FF"/>
<path d="M51.5 6C53.6667 6 58 7.3 58 12.5" stroke="black" stroke-width="4"/>
<path d="M71.5 6C69.3333 6 65 7.3 65 12.5" stroke="black" stroke-width="4"/>
<path d="M56 14H67M58.5882 39H65.0588" stroke="black" stroke-width="4"/>
<path d="M18.9 44.45C15.72 44.45 12.84 43.76 10.26 42.38C7.71 40.97 5.7 39.035 4.23 36.575C2.79 34.115 2.07 31.34 2.07 28.25C2.07 25.16 2.805 22.385 4.275 19.925C5.745 17.465 7.755 15.545 10.305 14.165C12.885 12.755 15.765 12.05 18.945 12.05C21.525 12.05 23.88 12.5 26.01 13.4C28.14 14.3 29.94 15.605 31.41 17.315L27.63 20.87C25.35 18.41 22.545 17.18 19.215 17.18C17.055 17.18 15.12 17.66 13.41 18.62C11.7 19.55 10.365 20.855 9.405 22.535C8.445 24.215 7.965 26.12 7.965 28.25C7.965 30.38 8.445 32.285 9.405 33.965C10.365 35.645 11.7 36.965 13.41 37.925C15.12 38.855 17.055 39.32 19.215 39.32C22.545 39.32 25.35 38.075 27.63 35.585L31.41 39.185C29.94 40.895 28.125 42.2 25.965 43.1C23.835 44 21.48 44.45 18.9 44.45ZM60.7922 40.985C59.3822 42.095 57.5672 42.95 55.3472 43.55C53.1272 44.15 50.7272 44.45 48.1472 44.45C45.1172 44.45 42.5372 44.06 40.4072 43.28C38.3072 42.5 36.7172 41.42 35.6372 40.04C34.5572 38.66 34.0172 37.07 34.0172 35.27C34.0172 33.53 34.4972 32.015 35.4572 30.725C36.4172 29.435 37.7072 28.49 39.3272 27.89C38.0972 27.23 37.1222 26.315 36.4022 25.145C35.7122 23.945 35.3672 22.61 35.3672 21.14C35.3672 19.46 35.8622 17.945 36.8522 16.595C37.8722 15.215 39.3872 14.12 41.3972 13.31C43.4072 12.47 45.8822 12.05 48.8222 12.05C50.8022 12.05 52.7372 12.26 54.6272 12.68C56.5172 13.1 58.1672 13.67 59.5772 14.39L57.9122 19.025C55.2722 17.645 52.3172 16.955 49.0472 16.955C46.4672 16.955 44.5172 17.375 43.1972 18.215C41.9072 19.025 41.2622 20.12 41.2622 21.5C41.2622 22.85 41.7422 23.885 42.7022 24.605C43.6622 25.295 45.0722 25.64 46.9322 25.64H55.2572V30.5H46.6172C44.4872 30.5 42.8372 30.875 41.6672 31.625C40.4972 32.345 39.9122 33.425 39.9122 34.865C39.9122 36.305 40.6172 37.445 42.0272 38.285C43.4372 39.125 45.5672 39.545 48.4172 39.545C50.3972 39.545 52.3172 39.275 54.1772 38.735C56.0672 38.195 57.6422 37.445 58.9022 36.485L60.7922 40.985ZM82.4495 27.575C84.3395 28.175 85.8095 29.15 86.8595 30.5C87.9395 31.82 88.4795 33.38 88.4795 35.18C88.4795 37.07 87.8645 38.72 86.6345 40.13C85.4045 41.51 83.7545 42.575 81.6845 43.325C79.6445 44.075 77.4095 44.45 74.9795 44.45C72.8795 44.45 70.7645 44.165 68.6345 43.595C66.5345 42.995 64.5845 42.11 62.7845 40.94L64.6745 36.665C66.0545 37.595 67.5845 38.315 69.2645 38.825C70.9445 39.305 72.6095 39.545 74.2595 39.545C76.6295 39.545 78.5945 39.08 80.1545 38.15C81.7445 37.22 82.5395 35.945 82.5395 34.325C82.5395 32.945 81.9695 31.895 80.8295 31.175C79.6895 30.455 78.1145 30.095 76.1045 30.095H68.7695V25.505H75.6545C77.3945 25.505 78.7595 25.145 79.7495 24.425C80.7395 23.705 81.2345 22.73 81.2345 21.5C81.2345 20.03 80.5595 18.89 79.2095 18.08C77.8895 17.27 76.1945 16.865 74.1245 16.865C72.7145 16.865 71.2595 17.075 69.7595 17.495C68.2595 17.885 66.8495 18.47 65.5295 19.25L63.6845 14.525C65.3045 13.655 67.0145 13.01 68.8145 12.59C70.6445 12.14 72.4595 11.915 74.2595 11.915C76.5995 11.915 78.7445 12.275 80.6945 12.995C82.6745 13.715 84.2495 14.75 85.4195 16.1C86.5895 17.42 87.1745 18.98 87.1745 20.78C87.1745 22.34 86.7545 23.705 85.9145 24.875C85.0745 26.045 83.9195 26.945 82.4495 27.575ZM109.693 44.45C106.483 44.45 103.588 43.76 101.008 42.38C98.4281 40.97 96.4031 39.035 94.9331 36.575C93.4631 34.085 92.7281 31.31 92.7281 28.25C92.7281 25.19 93.4631 22.43 94.9331 19.97C96.4031 17.48 98.4281 15.545 101.008 14.165C103.588 12.755 106.483 12.05 109.693 12.05C112.903 12.05 115.798 12.755 118.378 14.165C120.958 15.545 122.983 17.465 124.453 19.925C125.923 22.385 126.658 25.16 126.658 28.25C126.658 31.34 125.923 34.115 124.453 36.575C122.983 39.035 120.958 40.97 118.378 42.38C115.798 43.76 112.903 44.45 109.693 44.45ZM109.693 39.32C111.793 39.32 113.683 38.855 115.363 37.925C117.043 36.965 118.363 35.645 119.323 33.965C120.283 32.255 120.763 30.35 120.763 28.25C120.763 26.15 120.283 24.26 119.323 22.58C118.363 20.87 117.043 19.55 115.363 18.62C113.683 17.66 111.793 17.18 109.693 17.18C107.593 17.18 105.703 17.66 104.023 18.62C102.343 19.55 101.023 20.87 100.063 22.58C99.1031 24.26 98.6231 26.15 98.6231 28.25C98.6231 30.35 99.1031 32.255 100.063 33.965C101.023 35.645 102.343 36.965 104.023 37.925C105.703 38.855 107.593 39.32 109.693 39.32ZM161.116 12.5V44H155.266V30.5H138.976V44H133.126V12.5H138.976V25.505H155.266V12.5H161.116Z" fill="black"/>
</svg>
